
<svg width="1000px", height="1000px">
    <defs>
        <filter x="-21.4%" y="-21.4%" width="142.9%" height="142.9%" filterUnits="objectBoundingBox" id="filter-1">
            <feGaussianBlur stdDeviation="50" in="SourceGraphic"></feGaussianBlur>
        </filter>
    </defs>
    <svg width="100px" height="100px" x="0" y="0" viewBox="0 0 1000 1000">
        <g transform="translate(122.000000, 122.000000)">
            <rect id="Rectangle-2" fill-opacity="0.496433424" fill="#D0FF81" filter="url(#filter-1)" x="0" y="0" width="700" height="700"></rect>
            <g transform="translate(94.000000, 94.000000)" fill-rule="nonzero">
                <rect id="Rectangle-path" fill="#FFAD61" x="10.199" y="10.199" width="491.602" height="491.602"></rect>
                <g id="Group" fill="#534741">
                    <path d="M501.801,0 L10.199,0 C4.567,0 0,4.566 0,10.199 L0,501.801 C0,507.434 4.567,512 10.199,512 L501.801,512 C507.433,512 512,507.434 512,501.801 L512,10.199 C512,4.566 507.433,0 501.801,0 Z M144.489,245.801 L144.489,144.829 L367.511,144.829 L367.511,245.801 L144.489,245.801 Z M367.511,388.25 L367.511,491.602 L144.489,491.602 L144.489,388.25 L367.511,388.25 Z M20.398,367.852 L20.398,266.199 L246.14,266.199 L246.14,367.851 L20.398,367.851 L20.398,367.852 Z M20.398,245.801 L20.398,144.829 L124.09,144.829 L124.09,245.801 L20.398,245.801 Z M387.909,144.829 L491.601,144.829 L491.601,245.801 L387.909,245.801 L387.909,144.829 Z M491.602,124.43 L266.539,124.43 L266.539,20.398 L491.602,20.398 L491.602,124.43 Z M246.14,20.398 L246.14,124.43 L20.398,124.43 L20.398,20.398 L246.14,20.398 Z M20.398,388.25 L124.09,388.25 L124.09,491.602 L20.398,491.602 L20.398,388.25 Z M387.909,491.602 L387.909,388.25 L421.227,388.25 C426.859,388.25 431.426,383.684 431.426,378.051 C431.426,372.418 426.859,367.852 421.227,367.852 L266.539,367.852 L266.539,266.199 L491.602,266.199 L491.602,491.601 L387.909,491.601 L387.909,491.602 Z" id="Shape"></path>
                    <path d="M464.064,367.852 L457.944,367.852 C452.312,367.852 447.745,372.418 447.745,378.051 C447.745,383.684 452.312,388.25 457.944,388.25 L464.064,388.25 C469.696,388.25 474.263,383.684 474.263,378.051 C474.263,372.418 469.696,367.852 464.064,367.852 Z" id="Shape"></path>
                </g>
            </g>
        </g>
    </svg>
    <svg width="100px" height="100px" viewBox="0 0 1000 1000" x="100" y="0">
            <g transform="translate(122.000000, 122.000000)">
                <rect id="Rectangle-2" fill-opacity="0.496433424" fill="#D0FF81" filter="url(#filter-1)" x="0" y="0" width="700" height="700"></rect>
                <g transform="translate(350.000000, 350.000000) rotate(-90.000000) translate(-350.000000, -350.000000) translate(153.000000, 94.000000)" fill-rule="nonzero">
                    <path d="M393.541,261.129 C393.541,160.206 329.56,75.59 243.418,52.844 C243.672,50.869 243.817,48.859 243.817,46.815 C243.816,20.961 222.856,0 197.001,0 C171.146,0 150.185,20.961 150.185,46.817 C150.185,48.861 150.33,50.871 150.584,52.846 C64.441,75.592 0.459,160.206 0.459,261.129 C0.459,361.973 64.34,446.534 150.38,469.36 C152.496,493.256 172.555,511.995 197.001,511.995 C221.447,511.995 241.506,493.256 243.622,469.36 C329.66,446.534 393.541,361.973 393.541,261.129 Z" id="Shape" fill="#F4DE3B"></path>
                    <path d="M197.004,512 C172.558,512 152.501,493.252 150.383,469.357 C64.341,446.528 0.46,361.974 0.46,261.136 C0.46,160.208 64.443,75.59 150.589,52.85 C150.332,50.874 150.178,48.859 150.178,46.819 C150.178,20.961 171.146,0.006 197.004,0.006 C188.047,0.006 180.784,20.962 180.784,46.819 C180.784,48.859 180.835,50.874 180.925,52.85 C151.102,75.589 128.94,160.207 128.94,261.136 C128.94,361.975 151.063,446.528 180.861,469.358 C181.593,493.252 188.535,512 197.004,512 Z" id="Shape" fill="#D6BD27"></path>
                </g>
            </g>
    </svg>
</svg>