
<svg width="512px" height="512px" viewBox="0 0 512 512" version="1.1" xmlns="http://www.w3.org/2000/svg" xmlns:xlink="http://www.w3.org/1999/xlink">
    <!-- Generator: Sketch 43.2 (39069) - http://www.bohemiancoding.com/sketch -->
    <desc>Created with Sketch.</desc>
    <defs></defs>
    <g id="Page-1" stroke="none" stroke-width="1" fill="none" fill-rule="evenodd">
        <g id="brick" fill-rule="nonzero">
            <rect id="Rectangle-path" fill="#FFAD61" x="10.199" y="10.199" width="491.602" height="491.602"></rect>
            <g id="Group" fill="#534741">
                <path d="M501.801,0 L10.199,0 C4.567,0 0,4.566 0,10.199 L0,501.801 C0,507.434 4.567,512 10.199,512 L501.801,512 C507.433,512 512,507.434 512,501.801 L512,10.199 C512,4.566 507.433,0 501.801,0 Z M144.489,245.801 L144.489,144.829 L367.511,144.829 L367.511,245.801 L144.489,245.801 Z M367.511,388.25 L367.511,491.602 L144.489,491.602 L144.489,388.25 L367.511,388.25 Z M20.398,367.852 L20.398,266.199 L246.14,266.199 L246.14,367.851 L20.398,367.851 L20.398,367.852 Z M20.398,245.801 L20.398,144.829 L124.09,144.829 L124.09,245.801 L20.398,245.801 Z M387.909,144.829 L491.601,144.829 L491.601,245.801 L387.909,245.801 L387.909,144.829 Z M491.602,124.43 L266.539,124.43 L266.539,20.398 L491.602,20.398 L491.602,124.43 Z M246.14,20.398 L246.14,124.43 L20.398,124.43 L20.398,20.398 L246.14,20.398 Z M20.398,388.25 L124.09,388.25 L124.09,491.602 L20.398,491.602 L20.398,388.25 Z M387.909,491.602 L387.909,388.25 L421.227,388.25 C426.859,388.25 431.426,383.684 431.426,378.051 C431.426,372.418 426.859,367.852 421.227,367.852 L266.539,367.852 L266.539,266.199 L491.602,266.199 L491.602,491.601 L387.909,491.601 L387.909,491.602 Z" id="Shape"></path>
                <path d="M464.064,367.852 L457.944,367.852 C452.312,367.852 447.745,372.418 447.745,378.051 C447.745,383.684 452.312,388.25 457.944,388.25 L464.064,388.25 C469.696,388.25 474.263,383.684 474.263,378.051 C474.263,372.418 469.696,367.852 464.064,367.852 Z" id="Shape"></path>
            </g>
        </g>
    </g>
</svg>