<svg width="511px" height="511px" viewBox="0 0 511 511">
    <g transform="translate(255.500000, 255.500000) rotate(90.000000) translate(-255.500000, -255.500000) " fill-rule="nonzero">
        <path d="M408.58,65.649 C491.888,148.957 482.343,293.012 386.885,387.602 C292.295,482.192 147.373,491.738 64.932,409.297 C-17.509,326.856 -7.962,181.933 86.628,86.476 C182.085,-8.114 326.14,-17.66 408.58,65.649 L408.58,65.649 Z" id="Shape" fill="#D0E8F9"></path>
        <path d="M206.384,473.513 C150.845,473.513 98.777,454.421 58.859,414.503 C17.204,372.849 -3.623,314.706 0.716,251.357 C5.055,188.876 33.692,128.13 80.553,80.401 C128.282,33.54 189.028,4.903 251.509,0.564 C314.858,-3.775 373.001,17.052 414.655,58.706 C500.567,144.618 491.021,294.747 392.96,392.808 C340.892,446.611 272.336,473.513 206.384,473.513 Z M267.997,17.052 C262.79,17.052 258.451,17.052 253.244,17.92 C194.234,21.391 136.96,48.293 92.702,92.55 C48.444,136.807 21.543,194.083 18.072,253.093 C13.733,311.235 32.825,364.171 71.875,402.354 C151.712,482.191 290.56,472.646 381.678,380.659 C472.797,289.54 482.342,150.693 403.373,70.856 C367.794,36.144 320.065,17.052 267.997,17.052 Z" id="Shape" fill="#0096E6"></path>
        <path d="M387.753,387.601 C300.106,475.248 169.936,490.001 84.892,425.784 C90.099,432.726 95.306,439.669 102.248,445.743 C185.556,529.051 329.611,519.506 424.201,424.048 C518.791,329.458 528.337,184.536 445.896,102.095 C439.821,96.02 432.879,89.946 425.937,84.739 C490.153,169.784 475.401,299.954 387.753,387.601 L387.753,387.601 Z" id="Shape" fill="#FFFFFF"></path>
        <path d="M243.699,510.828 C186.424,510.828 135.224,490.001 96.174,451.818 C90.099,445.743 84.025,438.801 77.95,430.991 L90.099,418.842 C172.54,481.323 297.502,464.835 380.811,380.659 C464.119,297.35 480.608,171.52 418.994,89.947 L431.143,77.798 C438.953,83.873 445.896,89.079 451.97,96.022 C493.624,137.676 514.451,195.819 510.112,259.168 C505.773,322.517 477.136,383.263 430.275,430.124 C382.546,477.853 321.8,505.622 259.319,509.961 C254.112,510.828 248.906,510.828 243.699,510.828 Z M136.96,463.099 C171.672,485.662 213.326,496.075 258.452,493.472 C317.462,489.133 373.869,463.099 418.127,418.842 C462.385,374.585 489.286,317.31 492.758,259.167 C495.361,214.042 484.948,172.387 462.385,137.675 C490.155,220.983 464.988,322.516 392.961,394.543 L392.961,394.543 C321.801,465.703 220.268,490.869 136.96,463.099 Z" id="Shape" fill="#0096E6"></path>
        <path d="M399.902,375.452 L435.482,411.032" id="Shape" fill="#D0E8F9"></path>
        <path d="M435.482,419.71 C432.879,419.71 431.143,418.842 429.407,417.107 L393.827,381.527 C390.356,378.056 390.356,372.849 393.827,369.378 C397.298,365.907 402.505,365.907 405.976,369.378 L441.556,404.958 C445.027,408.429 445.027,413.636 441.556,417.107 C439.821,418.842 438.085,419.71 435.482,419.71 Z" id="Shape" fill="#0096E6"></path>
        <path d="M368.662,404.957 L405.109,441.404" id="Shape" fill="#D0E8F9"></path>
        <path d="M405.109,450.083 C402.506,450.083 400.77,449.215 399.034,447.48 L362.587,411.033 C359.116,407.562 359.116,402.355 362.587,398.884 C366.058,395.413 371.265,395.413 374.736,398.884 L411.183,435.331 C414.654,438.802 414.654,444.009 411.183,447.48 C409.448,449.215 407.712,450.083 405.109,450.083 Z" id="Shape" fill="#0096E6"></path>
        <path d="M425.936,339.872 L462.383,376.319" id="Shape" fill="#D0E8F9"></path>
        <path d="M462.384,384.998 C459.781,384.998 458.045,384.13 456.309,382.395 L419.862,345.948 C416.391,342.477 416.391,337.27 419.862,333.799 C423.333,330.328 428.54,330.328 432.011,333.799 L468.458,370.246 C471.929,373.717 471.929,378.924 468.458,382.395 C466.723,384.13 464.987,384.998 462.384,384.998 Z" id="Shape" fill="#0096E6"></path>
        <path d="M446.763,299.086 L483.21,335.533" id="Shape" fill="#D0E8F9"></path>
        <path d="M483.211,345.079 C480.608,345.079 478.872,344.211 477.136,342.476 L440.689,306.029 C437.218,302.558 437.218,297.351 440.689,293.88 C444.16,290.409 449.367,290.409 452.838,293.88 L489.285,330.327 C492.756,333.798 492.756,339.005 489.285,342.476 C487.55,344.211 485.814,345.079 483.211,345.079 Z" id="Shape" fill="#0096E6"></path>
        <path d="M332.214,430.123 L368.661,466.57" id="Shape" fill="#D0E8F9"></path>
        <path d="M369.529,476.116 C366.926,476.116 365.19,475.248 363.454,473.513 L327.007,437.066 C323.536,433.595 323.536,428.388 327.007,424.917 C330.478,421.446 335.685,421.446 339.156,424.917 L375.603,461.364 C379.074,464.835 379.074,470.042 375.603,473.513 C373.868,475.249 371.265,476.116 369.529,476.116 Z" id="Shape" fill="#0096E6"></path>
        <path d="M290.56,450.083 L327.007,486.53" id="Shape" fill="#D0E8F9"></path>
        <path d="M327.007,495.208 C324.404,495.208 322.668,494.34 320.932,492.605 L284.485,456.158 C281.014,452.687 281.014,447.48 284.485,444.009 C287.956,440.538 293.163,440.538 296.634,444.009 L333.081,480.456 C336.552,483.927 336.552,489.134 333.081,492.605 C332.214,494.34 329.611,495.208 327.007,495.208 Z" id="Shape" fill="#0096E6"></path>
        <path d="M230.682,463.967 L267.129,500.414" id="Shape" fill="#D0E8F9"></path>
        <path d="M267.997,509.961 C265.394,509.961 263.658,509.093 261.922,507.358 L224.607,470.043 C221.136,466.572 221.136,461.365 224.607,457.894 C228.078,454.423 233.285,454.423 236.756,457.894 L273.203,494.341 C276.674,497.812 276.674,503.019 273.203,506.49 C272.336,509.093 269.733,509.961 267.997,509.961 Z" id="Shape" fill="#0096E6"></path>
        <path d="M167.333,462.232 L203.78,498.679" id="Shape" fill="#D0E8F9"></path>
        <path d="M203.78,507.357 C201.177,507.357 199.441,506.489 197.705,504.754 L161.258,468.307 C157.787,464.836 157.787,459.629 161.258,456.158 C164.729,452.687 169.936,452.687 173.407,456.158 L209.854,492.605 C213.325,496.076 213.325,501.283 209.854,504.754 C208.987,506.489 206.384,507.357 203.78,507.357 Z" id="Shape" fill="#0096E6"></path>
        <path d="M462.384,241.811 L498.831,278.258" id="Shape" fill="#D0E8F9"></path>
        <path d="M499.699,286.937 C497.096,286.937 495.36,286.069 493.624,284.334 L457.177,247.887 C453.706,244.416 453.706,239.209 457.177,235.738 C460.648,232.267 465.855,232.267 469.326,235.738 L505.773,272.185 C509.244,275.656 509.244,280.863 505.773,284.334 C504.038,286.069 501.435,286.937 499.699,286.937 Z" id="Shape" fill="#0096E6"></path>
        <path d="M464.119,181.933 L500.566,218.38" id="Shape" fill="#D0E8F9"></path>
        <g transform="translate(53.000000, 52.000000)" fill="#0096E6">
            <path d="M447.567,175.059 C444.964,175.059 443.228,174.191 441.492,172.456 L405.045,136.009 C401.574,132.538 401.574,127.331 405.045,123.86 C408.516,120.389 413.723,120.389 417.194,123.86 L453.641,160.307 C457.112,163.778 457.112,168.985 453.641,172.456 C451.906,174.191 450.17,175.059 447.567,175.059 Z" id="Shape"></path>
            <path d="M161.194,369.445 C155.987,369.445 152.516,365.974 152.516,360.767 C152.516,355.56 155.987,352.089 161.194,352.089 C166.401,352.089 172.475,352.089 177.682,351.221 C182.889,351.221 186.36,353.824 187.228,359.031 C188.096,363.37 184.625,367.709 179.418,368.577 C173.343,368.577 167.268,369.445 161.194,369.445 L161.194,369.445 Z M110.862,361.635 L108.259,361.635 C102.184,359.899 96.978,357.296 90.903,354.693 C86.564,352.957 84.828,347.751 86.564,343.412 C88.3,339.073 93.506,337.337 97.845,339.073 C103.052,341.676 107.391,343.412 112.598,345.148 C116.937,346.884 119.54,351.223 117.805,356.429 C117.804,359.032 114.333,361.635 110.862,361.635 Z M228.882,356.428 C225.411,356.428 221.94,354.692 221.072,351.221 C219.336,346.882 221.94,341.675 226.279,339.94 C231.486,338.204 236.693,335.601 241.032,332.998 C245.371,331.262 250.578,332.998 252.313,337.337 C254.049,341.676 252.313,346.883 247.974,348.618 C242.767,351.221 236.693,353.825 231.486,355.56 C230.618,355.56 229.75,356.428 228.882,356.428 Z M51.851,326.055 C50.115,326.055 47.512,325.187 45.776,323.452 L51.851,317.377 L45.776,323.452 C41.437,319.113 37.098,314.774 33.627,309.567 C31.024,306.096 31.024,300.021 35.363,297.418 C38.834,294.815 44.909,294.815 47.512,299.154 C50.983,303.493 54.454,306.964 57.926,311.303 C61.397,314.774 61.397,319.981 57.926,323.452 C56.19,325.188 54.455,326.055 51.851,326.055 Z M287.024,320.849 C284.421,320.849 281.817,319.981 280.082,317.378 C276.611,313.907 277.479,307.832 280.95,305.229 C285.289,301.758 288.76,298.287 293.099,293.948 C296.57,290.477 301.777,290.477 305.248,293.948 C308.719,297.419 308.719,302.626 305.248,306.097 L305.248,306.097 C300.909,310.436 296.57,313.907 292.231,318.246 C291.363,319.981 289.628,320.849 287.024,320.849 Z M331.282,268.781 C329.546,268.781 327.811,268.781 326.943,267.913 C322.604,265.31 321.736,260.103 324.34,255.764 C326.943,251.425 329.547,246.218 332.15,241.011 C333.886,236.672 339.092,234.936 343.431,236.672 C347.77,238.408 349.506,243.614 347.77,247.953 C345.167,253.16 342.563,258.367 339.092,263.573 C337.357,267.045 334.753,268.781 331.282,268.781 Z M16.272,267.913 C12.801,267.913 9.33,265.31 7.594,261.838 C5.858,255.763 4.123,250.557 3.255,244.482 C2.387,240.143 4.991,234.936 10.197,234.068 C15.404,233.2 19.743,235.804 20.611,241.01 C21.479,246.217 23.214,251.424 24.95,256.63 C26.686,260.969 24.082,266.176 19.743,267.911 C18.007,267.913 17.14,267.913 16.272,267.913 Z M356.448,204.564 L354.712,204.564 C350.373,203.696 346.902,199.357 347.77,194.15 C348.638,188.943 349.506,183.736 350.373,177.662 C351.241,173.323 354.712,168.984 359.919,169.852 C364.258,170.72 368.597,174.191 367.729,179.398 C366.861,185.473 365.993,191.547 365.126,197.622 C364.258,201.96 360.787,204.564 356.448,204.564 Z M9.329,200.225 L9.329,200.225 C4.122,199.357 0.651,195.886 0.651,190.679 C1.519,184.604 2.387,178.53 3.254,172.455 C4.122,168.116 8.461,164.645 13.668,165.513 C18.007,166.381 21.478,170.72 20.61,175.927 C19.742,181.134 18.874,186.341 18.007,192.415 C18.007,196.754 13.668,200.225 9.329,200.225 Z M356.448,136.008 C352.109,136.008 348.638,133.405 347.77,129.066 C346.902,123.859 345.167,118.652 343.431,113.446 C341.695,109.107 344.299,103.9 348.638,102.165 C352.977,100.43 358.184,103.033 359.919,107.372 C361.655,113.447 363.39,118.653 364.258,124.728 C365.126,129.067 362.522,134.274 357.316,135.142 C357.316,136.008 356.448,136.008 356.448,136.008 Z M28.421,134.272 C27.553,134.272 25.818,134.272 24.95,133.404 C20.611,131.668 18.875,126.462 20.611,122.123 C23.214,116.916 25.818,111.709 29.289,106.503 C31.892,102.164 37.099,101.296 41.438,103.9 C45.777,106.503 46.645,111.71 44.041,116.049 C41.438,119.52 38.834,124.727 36.231,129.066 C34.495,132.537 31.892,134.272 28.421,134.272 Z M68.34,77.866 C65.737,77.866 64.001,76.998 62.265,75.263 C58.794,71.792 58.794,66.585 62.265,63.114 L62.265,63.114 C66.604,58.775 70.943,55.304 75.282,50.965 C78.753,47.494 84.828,48.362 87.431,51.833 C90.902,55.304 90.034,61.379 86.563,63.982 C82.224,67.453 78.753,70.924 74.414,75.263 C72.679,76.998 70.943,77.866 68.34,77.866 Z M327.811,74.394 C325.208,74.394 322.604,73.526 320.869,70.923 C317.398,66.584 313.927,62.245 310.455,58.774 L316.53,52.699 L322.605,46.624 L316.53,52.699 L322.605,46.624 C326.944,50.963 331.283,55.302 334.754,60.509 C337.357,63.98 337.357,70.055 333.018,72.658 C331.282,73.527 329.546,74.394 327.811,74.394 Z M123.879,37.947 C120.408,37.947 117.804,36.211 116.069,32.74 C114.333,28.401 116.069,23.194 120.408,21.459 C125.615,18.856 131.689,16.252 136.896,14.517 C141.235,12.781 146.442,15.385 148.177,19.724 C149.913,24.063 147.309,29.27 142.97,31.005 C137.763,32.741 132.556,35.344 128.217,37.947 L123.879,37.947 Z M274.007,31.872 C273.139,31.872 271.404,31.872 270.536,31.004 C265.329,28.401 260.99,26.665 255.783,24.929 C251.444,23.193 248.841,18.854 250.576,13.648 C252.312,8.441 256.651,6.706 261.857,8.441 C267.932,10.177 273.138,12.78 279.213,15.383 C283.552,17.119 285.288,22.325 283.552,26.664 C280.082,30.137 276.611,31.872 274.007,31.872 Z M189.831,18.855 C185.492,18.855 182.021,15.384 181.153,11.045 C180.285,6.706 183.756,2.367 188.963,1.499 C195.038,0.631 201.112,0.631 207.187,0.631 L207.187,0.631 C212.394,0.631 215.865,4.102 215.865,9.309 C215.865,14.516 212.394,17.987 207.187,17.987 C201.98,17.987 195.906,17.987 190.699,18.855 L189.831,18.855 Z" id="Shape"></path>
        </g>
    </g>
</svg>