
<svg width="512px" height="394px" viewBox="0 0 512 394" version="1.1" xmlns="http://www.w3.org/2000/svg" xmlns:xlink="http://www.w3.org/1999/xlink">
    <!-- Generator: Sketch 43.2 (39069) - http://www.bohemiancoding.com/sketch -->
    <desc>Created with Sketch.</desc>
    <defs></defs>
    <g id="Page-1" stroke="none" stroke-width="1" fill="none" fill-rule="evenodd">
        <g id="lemon" transform="translate(256.000000, 197.000000) rotate(-90.000000) translate(-256.000000, -197.000000) translate(59.000000, -59.000000)" fill-rule="nonzero">
            <path d="M393.541,261.129 C393.541,160.206 329.56,75.59 243.418,52.844 C243.672,50.869 243.817,48.859 243.817,46.815 C243.816,20.961 222.856,0 197.001,0 C171.146,0 150.185,20.961 150.185,46.817 C150.185,48.861 150.33,50.871 150.584,52.846 C64.441,75.592 0.459,160.206 0.459,261.129 C0.459,361.973 64.34,446.534 150.38,469.36 C152.496,493.256 172.555,511.995 197.001,511.995 C221.447,511.995 241.506,493.256 243.622,469.36 C329.66,446.534 393.541,361.973 393.541,261.129 Z" id="Shape" fill="#F4DE3B"></path>
            <path d="M197.004,512 C172.558,512 152.501,493.252 150.383,469.357 C64.341,446.528 0.46,361.974 0.46,261.136 C0.46,160.208 64.443,75.59 150.589,52.85 C150.332,50.874 150.178,48.859 150.178,46.819 C150.178,20.961 171.146,0.006 197.004,0.006 C188.047,0.006 180.784,20.962 180.784,46.819 C180.784,48.859 180.835,50.874 180.925,52.85 C151.102,75.589 128.94,160.207 128.94,261.136 C128.94,361.975 151.063,446.528 180.861,469.358 C181.593,493.252 188.535,512 197.004,512 Z" id="Shape" fill="#D6BD27"></path>
        </g>
    </g>
</svg>