
<svg width="428px" height="491px" viewBox="0 0 428 491" version="1.1" xmlns="http://www.w3.org/2000/svg" xmlns:xlink="http://www.w3.org/1999/xlink">
    <!-- Generator: Sketch 43.2 (39069) - http://www.bohemiancoding.com/sketch -->
    <desc>Created with Sketch.</desc>
    <defs></defs>
    <g id="Page-1" stroke="none" stroke-width="1" fill="none" fill-rule="evenodd">
        <g id="plant" fill-rule="nonzero">
            <path d="M214.168,116.773 L214.168,0 L204.652,5.148 C158.585,30.069 131.082,71.798 131.082,116.773 C131.082,158.219 154.452,196.896 194.168,222.216 L194.168,116.773 L214.168,116.773 Z" id="Shape" fill="#91DC5A"></path>
            <path d="M234.168,116.773 L234.168,222.216 C273.884,196.897 297.254,158.219 297.254,116.773 C297.254,71.798 269.751,30.069 223.684,5.148 L214.168,0 L214.168,116.773 L234.168,116.773 Z" id="Shape" fill="#6DC82A"></path>
            <path d="M341.786,238.221 L427.394,187.333 L418.106,181.783 C398.095,169.826 376.449,163.506 355.507,163.506 C337.653,163.506 321.093,167.968 306.291,176.767 C276.895,194.241 259.093,226.736 257.303,265.173 L331.566,221.029 L341.786,238.221 Z" id="Shape" fill="#91DC5A"></path>
            <path d="M427.831,198.143 L427.393,187.332 L341.785,238.22 L352.004,255.412 L277.753,299.549 C294.641,307.733 312.355,312.025 329.593,312.025 C347.447,312.025 364.008,307.563 378.81,298.764 C411.274,279.467 429.599,241.852 427.831,198.143 Z" id="Shape" fill="#6DC82A"></path>
            <path d="M86.549,238.221 L0.941,187.333 L0.503,198.144 C-1.265,241.853 17.06,279.468 49.524,298.766 C64.327,307.566 80.886,312.027 98.741,312.027 C115.979,312.027 133.693,307.735 150.581,299.551 L76.33,255.414 L86.549,238.221 Z" id="Shape" fill="#6DC82A"></path>
            <path d="M96.769,221.029 L171.032,265.173 C169.243,226.735 151.44,194.241 122.044,176.767 C107.241,167.967 90.682,163.506 72.828,163.506 C51.887,163.506 30.24,169.826 10.229,181.783 L0.941,187.333 L86.549,238.221 L96.769,221.029 Z" id="Shape" fill="#91DC5A"></path>
            <polygon id="Shape" fill="#00665A" points="341.786 238.221 331.567 221.029 257.304 265.173 234.168 278.926 234.168 222.215 234.168 116.773 214.168 116.773 194.168 116.773 194.168 222.215 194.168 278.926 171.032 265.173 96.769 221.029 86.549 238.221 76.33 255.413 150.582 299.55 194.168 325.459 194.168 354.537 214.168 354.537 234.168 354.537 234.168 325.459 277.754 299.55 352.005 255.413"></polygon>
            <polygon id="Shape" fill="#FF9811" points="194.168 354.537 121.024 354.537 134.56 490.335 214.168 490.335 214.168 354.537"></polygon>
            <polygon id="Shape" fill="#FF7956" points="214.168 490.335 293.775 490.335 307.311 354.537 234.168 354.537 214.168 354.537"></polygon>
        </g>
    </g>
</svg>